<?xml version="1.0" standalone="no"?>
<!DOCTYPE svg PUBLIC "-//W3C//DTD SVG 1.1//EN" "http://www.w3.org/Graphics/SVG/1.1/DTD/svg11.dtd">
<svg xmlns="http://www.w3.org/2000/svg" viewBox="0 0 500 500" width="500" height="500"><g id="freepik--background-simple--inject-42"><path d="M340.69,47.11S63.5,88.77,29.85,161.67,82.72,386.79,133.2,429.25,400,430.06,448.85,366,466.47,27.88,340.69,47.11Z" style="fill:#297633"/><path d="M340.69,47.11S63.5,88.77,29.85,161.67,82.72,386.79,133.2,429.25,400,430.06,448.85,366,466.47,27.88,340.69,47.11Z" style="fill:#fff;opacity:0.7000000000000001"/></g><g id="freepik--Plants--inject-42"><path d="M361,413.6c1.52.66,5.23.58,5.23.58s-.8-2.43-.87-2.58c-.81-1.7-3.39-4.52-5.48-4.23a2.5,2.5,0,0,0-2,3.13C358.22,412,359.71,413,361,413.6Z" style="fill:#263238"/><path d="M362.28,424.35c1.57.23,4.89-.73,5.15-.81a43.18,43.18,0,0,0,2,5.56c.46,1.06.95,2.11,1.45,3.15-.3-.44-.57-.84-.62-.89-1.23-1.43-4.46-3.46-6.4-2.63a2.49,2.49,0,0,0-1.11,3.55c.71,1.31,2.44,2,3.83,2.16a16.56,16.56,0,0,0,5-.76c.2.39.39.79.59,1.19,1,1.91,1.93,3.81,2.82,5.71.31.67.59,1.34.88,2-.27-.39-.5-.72-.54-.76-1.23-1.43-4.46-3.47-6.41-2.64a2.51,2.51,0,0,0-1.11,3.56,5.24,5.24,0,0,0,3.84,2.15,15.79,15.79,0,0,0,4.87-.73c.28.7.55,1.39.78,2.08.15.47.33.91.45,1.39s.27.94.4,1.41c.21.9.44,1.83.63,2.72.14.61.26,1.2.38,1.8-.31-.67-.93-2-1-2.07-1-1.6-3.88-4.1-5.93-3.57a2.5,2.5,0,0,0-1.64,3.34,5.29,5.29,0,0,0,3.47,2.72c1.48.45,4.77,0,5.18,0,.2,1,.38,1.94.54,2.85.12.67.22,1.31.32,1.93h1.32c-.12-.69-.26-1.41-.41-2.16-.2-1-.43-2.06-.67-3.15a28.11,28.11,0,0,0,2.89-1.36,18.54,18.54,0,0,0,4.22,2.72c-.38.92-.76,1.82-1.13,2.67-.19.44-.38.86-.57,1.28h1.4c.11-.26.21-.52.33-.8.38-.94.78-1.95,1.18-3,.39.09,3.65.75,5.17.41,1.37-.31,3-1.09,3.65-2.45a2.49,2.49,0,0,0-1.38-3.46c-2-.67-5.06,1.6-6.18,3.12-.07.09-.68,1.14-1.05,1.81.16-.42.32-.84.48-1.28.32-.87.61-1.75.93-2.7.14-.46.28-.92.42-1.4s.25-1,.37-1.46c.28-1.14.5-2.32.69-3.5a16.79,16.79,0,0,0,4.91,1.12,5.24,5.24,0,0,0,4-1.86,2.51,2.51,0,0,0-.85-3.63c-1.88-1-5.24.82-6.58,2.15-.09.08-.94,1.14-1.4,1.74.12-.72.23-1.43.32-2.15.26-2.1.46-4.23.67-6.36.06-.65.13-1.3.2-1.94.27.1,3.49,1.3,5.07,1.18a5.21,5.21,0,0,0,4-1.86,2.51,2.51,0,0,0-.84-3.63c-1.88-1-5.25.82-6.59,2.15-.1.1-1.33,1.63-1.62,2,.15-1.43.32-2.85.53-4.25a44.46,44.46,0,0,1,1.22-5.58c.13,0,3.48,1.31,5.1,1.2,1.41-.1,3.18-.62,4-1.87a2.51,2.51,0,0,0-.84-3.63c-1.88-1-5.25.82-6.59,2.15-.1.11-1.42,1.76-1.64,2.07,0-.1.05-.22.09-.32a32.4,32.4,0,0,1,2.21-5.29c.48-.94,1-1.81,1.51-2.65a16.86,16.86,0,0,0,4.83,1.7,5.28,5.28,0,0,0,4.17-1.42,2.51,2.51,0,0,0-.44-3.7c-1.76-1.17-5.31.24-6.78,1.42-.08.06-.83.8-1.36,1.35.24-.38.48-.77.71-1.12.89-1.33,1.78-2.5,2.58-3.53.46-.57.88-1.09,1.29-1.57a16.46,16.46,0,0,0,5-.72c1.28-.6,2.74-1.71,3.05-3.17a2.5,2.5,0,0,0-2.1-3.08c-2.1-.23-4.6,2.65-5.37,4.38-.06.14-.83,2.6-.79,2.59h0c-.4.46-.82.95-1.27,1.49-.82,1-1.74,2.16-2.66,3.48a43.21,43.21,0,0,0-2.75,4.39,32.45,32.45,0,0,0-2.36,5.3s0,0,0,.07c0-.62,0-2.35,0-2.49-.25-1.87-1.82-5.34-3.9-5.73a2.5,2.5,0,0,0-2.88,2.35,5.25,5.25,0,0,0,2,3.92c1.18,1.06,4.48,2.09,4.74,2.17a43.34,43.34,0,0,0-1.39,5.74c-.2,1.13-.37,2.28-.53,3.43,0-.54,0-1,0-1.08-.25-1.87-1.82-5.35-3.9-5.73a2.5,2.5,0,0,0-2.88,2.35,5.22,5.22,0,0,0,2,3.92,16.66,16.66,0,0,0,4.59,2.12c-.05.44-.11.88-.16,1.32-.26,2.13-.5,4.24-.8,6.32-.11.73-.24,1.44-.37,2.16,0-.48,0-.88,0-.94-.25-1.87-1.82-5.35-3.9-5.73a2.5,2.5,0,0,0-2.88,2.35c-.13,1.49.95,3,2,3.92a15.64,15.64,0,0,0,4.46,2.07c-.15.73-.31,1.46-.49,2.16-.13.48-.23.94-.39,1.41l-.45,1.39c-.32.88-.64,1.78-1,2.62-.23.59-.46,1.15-.68,1.71.11-.72.31-2.15.31-2.27a9.81,9.81,0,0,0-1.3-4.73,3.39,3.39,0,0,0,0-.55,2.5,2.5,0,0,0-3.06-2.12c-2,.54-3.34,4.13-3.43,6,0,.11.06,1.33.12,2.09-.1-.44-.2-.87-.31-1.33-.21-.9-.45-1.8-.71-2.76l-.42-1.4c-.13-.47-.33-.95-.49-1.43-.41-1.11-.87-2.21-1.36-3.3a16.5,16.5,0,0,0,4.71-1.77,5.23,5.23,0,0,0,2.3-3.76,2.51,2.51,0,0,0-2.71-2.56c-2.1.23-3.92,3.58-4.31,5.43,0,.11-.14,1.47-.2,2.22-.3-.66-.6-1.32-.92-2-.94-1.9-1.95-3.78-2.95-5.67l-.91-1.73c.29-.07,3.63-.84,4.89-1.81a5.23,5.23,0,0,0,2.3-3.76,2.51,2.51,0,0,0-2.71-2.56c-2.1.23-3.92,3.58-4.3,5.43,0,.14-.21,2.09-.23,2.59-.66-1.27-1.31-2.55-1.9-3.83a45.59,45.59,0,0,1-2.06-5.33c.13,0,3.62-.83,4.91-1.82,1.12-.86,2.31-2.26,2.3-3.75a2.51,2.51,0,0,0-2.7-2.57c-2.11.23-3.93,3.58-4.31,5.43,0,.15-.22,2.25-.23,2.63,0-.1-.08-.21-.11-.32a32.62,32.62,0,0,1-1.07-5.62c-.12-1.05-.17-2.07-.2-3.05a16.88,16.88,0,0,0,5-1.25c1.2-.73,2.54-2,2.69-3.48a2.5,2.5,0,0,0-2.41-2.84c-2.11,0-4.29,3.12-4.87,4.92,0,.1-.25,1.12-.39,1.88,0-.45,0-.91,0-1.33,0-1.6.1-3.07.2-4.36.07-.74.14-1.4.21-2,.61-.43,3.06-2.15,3.81-3.39a5.27,5.27,0,0,0,.79-4.33,2.5,2.5,0,0,0-3.45-1.41c-1.88,1-2.37,4.75-2.06,6.61,0,.16.74,2.63.77,2.61l0,0c-.09.59-.17,1.23-.24,1.93-.13,1.3-.27,2.77-.3,4.37a41.85,41.85,0,0,0,.12,5.19,32.39,32.39,0,0,0,1,5.72.14.14,0,0,1,0,.07c-.33-.53-1.31-2-1.4-2.06-1.23-1.43-4.46-3.46-6.41-2.63a2.5,2.5,0,0,0-1.11,3.55A5.24,5.24,0,0,0,362.28,424.35Z" style="fill:#263238"/><path d="M398.54,414.42s.68-2.47.7-2.63c.26-1.87-.33-5.64-2.24-6.56a2.5,2.5,0,0,0-3.4,1.51,5.23,5.23,0,0,0,.9,4.31C395.4,412.44,398.54,414.41,398.54,414.42Z" style="fill:#263238"/><path d="M81.28,407.81c1.71.75,5.9.66,5.9.66s-.9-2.74-1-2.91c-.91-1.92-3.82-5.1-6.18-4.78a2.82,2.82,0,0,0-2.27,3.54C78.14,406,79.82,407.18,81.28,407.81Z" style="fill:#263238"/><path d="M82.73,419.94c1.77.26,5.51-.82,5.81-.91a50.24,50.24,0,0,0,2.26,6.27c.52,1.19,1.07,2.38,1.64,3.55-.34-.49-.65-.94-.7-1-1.39-1.61-5-3.9-7.23-3a2.83,2.83,0,0,0-1.25,4c.81,1.48,2.76,2.21,4.33,2.44s4.8-.63,5.65-.87c.22.45.44.9.67,1.35,1.08,2.16,2.17,4.3,3.17,6.44.36.75.68,1.51,1,2.26-.3-.44-.56-.81-.61-.86-1.39-1.62-5-3.91-7.23-3a2.83,2.83,0,0,0-1.25,4c.81,1.48,2.75,2.21,4.33,2.44s4.49-.55,5.49-.82c.31.78.62,1.56.89,2.33.17.53.37,1,.5,1.58l.45,1.58c.24,1,.5,2.07.71,3.07.16.7.29,1.36.43,2-.35-.75-1.05-2.21-1.12-2.33-1.14-1.8-4.39-4.62-6.7-4a2.81,2.81,0,0,0-1.84,3.77c.57,1.58,2.38,2.6,3.91,3.07s5.38,0,5.84,0c.23,1.11.43,2.19.61,3.21l.37,2.18h1.48c-.14-.78-.29-1.59-.46-2.44-.22-1.13-.48-2.33-.76-3.55a34,34,0,0,0,3.26-1.54,20.78,20.78,0,0,0,4.76,3.07c-.43,1.05-.85,2.06-1.27,3l-.64,1.45h1.57c.12-.3.25-.59.38-.9.43-1.06.88-2.2,1.32-3.38.45.09,4.12.84,5.84.45,1.55-.35,3.43-1.23,4.12-2.76a2.82,2.82,0,0,0-1.56-3.9c-2.26-.76-5.71,1.8-7,3.52-.08.1-.77,1.29-1.19,2,.18-.48.36-.94.54-1.44.36-1,.7-2,1.06-3.05.15-.52.31-1,.47-1.57s.28-1.1.42-1.66c.31-1.29.56-2.61.78-3.95.86.31,3.94,1.38,5.53,1.27s3.58-.69,4.5-2.1a2.83,2.83,0,0,0-1-4.1c-2.12-1.09-5.92.92-7.43,2.43-.09.09-1,1.29-1.57,2,.13-.81.26-1.61.36-2.43.29-2.36.51-4.77.75-7.16.07-.74.15-1.47.23-2.2.3.11,3.93,1.47,5.72,1.34,1.59-.11,3.58-.69,4.5-2.11a2.82,2.82,0,0,0-1-4.09c-2.12-1.09-5.92.92-7.43,2.43-.12.11-1.5,1.84-1.83,2.3.17-1.62.36-3.22.6-4.8a50.23,50.23,0,0,1,1.38-6.3c.14.06,3.92,1.49,5.75,1.36,1.59-.11,3.58-.7,4.5-2.11a2.82,2.82,0,0,0-.95-4.09c-2.12-1.1-5.92.92-7.43,2.42-.12.12-1.61,2-1.85,2.34l.09-.37a36.88,36.88,0,0,1,2.5-6c.54-1.06,1.12-2.05,1.7-3,.68.34,3.79,1.85,5.45,1.91s3.64-.29,4.71-1.59a2.84,2.84,0,0,0-.5-4.18c-2-1.32-6,.27-7.65,1.6-.09.07-.93.91-1.53,1.52l.8-1.26c1-1.5,2-2.82,2.91-4,.52-.65,1-1.23,1.45-1.77.84,0,4.22-.12,5.69-.81s3.09-1.94,3.44-3.59a2.82,2.82,0,0,0-2.36-3.47c-2.37-.26-5.19,3-6.06,4.94-.07.17-.94,2.93-.9,2.93h0c-.45.51-.92,1.06-1.43,1.68-.93,1.14-2,2.43-3,3.92a48.24,48.24,0,0,0-3.11,5,35.48,35.48,0,0,0-2.66,6s0,0,0,.08c0-.7,0-2.66,0-2.81-.27-2.11-2-6-4.39-6.47a2.83,2.83,0,0,0-3.26,2.66c-.13,1.68,1.08,3.36,2.27,4.42,1.34,1.19,5,2.35,5.35,2.44a51.08,51.08,0,0,0-1.57,6.48c-.23,1.28-.42,2.57-.59,3.87,0-.6,0-1.14,0-1.22-.28-2.11-2-6-4.39-6.47a2.83,2.83,0,0,0-3.26,2.66c-.14,1.68,1.08,3.36,2.27,4.42s4.35,2.12,5.18,2.39l-.18,1.5c-.29,2.39-.57,4.78-.91,7.12-.12.82-.27,1.63-.41,2.43,0-.53,0-1,0-1.05-.27-2.12-2-6-4.39-6.47a2.83,2.83,0,0,0-3.26,2.65c-.14,1.68,1.08,3.36,2.27,4.42s4,2,5,2.35c-.18.82-.35,1.64-.56,2.43-.15.54-.26,1.06-.44,1.59l-.51,1.57c-.36,1-.72,2-1.09,3-.26.66-.51,1.29-.77,1.92.13-.81.35-2.42.35-2.56a10.9,10.9,0,0,0-1.47-5.33,2.56,2.56,0,0,0,0-.62,2.82,2.82,0,0,0-3.45-2.4c-2.3.61-3.77,4.66-3.88,6.79,0,.12.08,1.49.15,2.36l-.35-1.51c-.24-1-.52-2-.8-3.12l-.48-1.57c-.15-.53-.37-1.08-.56-1.62-.45-1.24-1-2.49-1.53-3.72.89-.22,4-1,5.32-2s2.6-2.55,2.59-4.23a2.82,2.82,0,0,0-3-2.89c-2.37.25-4.43,4-4.86,6.12,0,.13-.17,1.66-.23,2.5-.34-.74-.68-1.48-1-2.22-1.06-2.14-2.2-4.26-3.33-6.39-.35-.65-.68-1.31-1-2,.32-.07,4.09-1,5.51-2,1.26-1,2.6-2.55,2.59-4.24a2.83,2.83,0,0,0-3-2.89c-2.37.26-4.43,4-4.86,6.13,0,.15-.23,2.36-.25,2.92-.75-1.44-1.48-2.88-2.14-4.33a48.31,48.31,0,0,1-2.33-6c.14,0,4.09-.93,5.54-2.05,1.27-1,2.6-2.55,2.59-4.23a2.82,2.82,0,0,0-3-2.89c-2.37.25-4.43,4-4.86,6.12,0,.16-.24,2.54-.25,3l-.13-.36a36.45,36.45,0,0,1-1.2-6.35c-.14-1.19-.2-2.33-.23-3.44.75-.09,4.18-.54,5.6-1.4s2.87-2.26,3-3.93a2.82,2.82,0,0,0-2.71-3.21c-2.39,0-4.85,3.53-5.51,5.55,0,.11-.27,1.27-.43,2.12,0-.5,0-1,0-1.5,0-1.8.12-3.45.23-4.92.07-.83.15-1.58.24-2.28.69-.47,3.45-2.42,4.3-3.81s1.5-3.32.88-4.89a2.82,2.82,0,0,0-3.88-1.6c-2.12,1.1-2.68,5.37-2.33,7.47,0,.18.83,3,.87,2.94l0,0c-.09.67-.19,1.4-.27,2.19-.15,1.46-.3,3.11-.34,4.93a48.87,48.87,0,0,0,.14,5.85,37.29,37.29,0,0,0,1.08,6.45l0,.08c-.38-.59-1.48-2.21-1.58-2.32-1.39-1.61-5-3.91-7.23-3a2.82,2.82,0,0,0-1.25,4C79.21,419,81.15,419.71,82.73,419.94Z" style="fill:#263238"/><path d="M123.64,408.73s.76-2.78.79-3c.29-2.11-.38-6.36-2.53-7.4a2.82,2.82,0,0,0-3.84,1.7c-.58,1.58.15,3.53,1,4.86C120.09,406.5,123.64,408.73,123.64,408.73Z" style="fill:#263238"/><path d="M135,435.59a9.27,9.27,0,0,0,2.69.3s-.41-1.25-.45-1.33c-.41-.87-1.74-2.31-2.81-2.17a1.29,1.29,0,0,0-1,1.61A2.68,2.68,0,0,0,135,435.59Z" style="fill:#263238"/><path d="M135.69,441.1a8.82,8.82,0,0,0,2.64-.41,23.27,23.27,0,0,0,1,2.85c.24.54.49,1.08.75,1.61l-.32-.45c-.63-.73-2.29-1.78-3.29-1.35a1.28,1.28,0,0,0-.56,1.82,2.66,2.66,0,0,0,2,1.11,8.64,8.64,0,0,0,2.57-.39l.3.61c.5,1,1,1.95,1.45,2.93q.24.51.45,1l-.27-.39c-.64-.73-2.29-1.77-3.29-1.35a1.28,1.28,0,0,0-.57,1.82,2.68,2.68,0,0,0,2,1.11,8.49,8.49,0,0,0,2.5-.37c.14.35.28.71.4,1.06s.16.47.23.71.13.49.2.72c.11.47.23.95.32,1.4s.14.62.2.92l-.51-1.06c-.52-.82-2-2.1-3-1.83a1.28,1.28,0,0,0-.83,1.72,2.69,2.69,0,0,0,1.77,1.39,8.84,8.84,0,0,0,2.66,0c.1.5.2,1,.28,1.46s.11.67.16,1h.68c-.07-.35-.13-.72-.21-1.11s-.22-1.06-.35-1.61a15.35,15.35,0,0,0,1.49-.7,9.17,9.17,0,0,0,2.16,1.39c-.19.48-.39.94-.58,1.37-.1.23-.19.45-.29.66h.71l.18-.41c.19-.48.4-1,.6-1.54a8.4,8.4,0,0,0,2.65.21,2.69,2.69,0,0,0,1.88-1.26,1.28,1.28,0,0,0-.71-1.77c-1-.35-2.6.82-3.17,1.6,0,.05-.35.59-.54.93l.24-.66c.17-.44.32-.89.48-1.38.07-.24.14-.48.22-.72s.12-.5.19-.75c.14-.59.25-1.19.35-1.8a8.29,8.29,0,0,0,2.52.58,2.66,2.66,0,0,0,2-.95A1.29,1.29,0,0,0,155,449c-1-.49-2.69.42-3.38,1.11,0,0-.48.59-.71.89.06-.37.12-.73.16-1.11.14-1.07.24-2.16.34-3.25,0-.34.07-.67.11-1a8.91,8.91,0,0,0,2.6.61,2.67,2.67,0,0,0,2-1,1.28,1.28,0,0,0-.43-1.86c-1-.5-2.69.42-3.38,1.1-.05,0-.68.84-.83,1,.08-.73.17-1.46.28-2.18a21.29,21.29,0,0,1,.62-2.86,9.3,9.3,0,0,0,2.62.61,2.64,2.64,0,0,0,2-1,1.28,1.28,0,0,0-.43-1.86c-1-.49-2.69.42-3.38,1.11-.05.05-.73.89-.84,1.06,0-.06,0-.12.05-.17a15.72,15.72,0,0,1,1.13-2.71c.25-.48.51-.93.78-1.36a8.65,8.65,0,0,0,2.47.87,2.66,2.66,0,0,0,2.14-.73,1.27,1.27,0,0,0-.22-1.89c-.91-.6-2.73.12-3.48.72,0,0-.43.41-.7.7.12-.2.25-.4.37-.58.45-.68.91-1.28,1.32-1.81.23-.29.45-.56.66-.8a8.82,8.82,0,0,0,2.58-.37,2.69,2.69,0,0,0,1.57-1.63,1.29,1.29,0,0,0-1.08-1.58c-1.07-.12-2.36,1.36-2.75,2.25,0,.07-.43,1.33-.41,1.33h0c-.2.23-.42.48-.65.76-.42.52-.89,1.11-1.36,1.78a23.26,23.26,0,0,0-1.42,2.26,16.08,16.08,0,0,0-1.2,2.72v0c0-.32,0-1.21,0-1.27-.13-1-.93-2.75-2-2.94a1.28,1.28,0,0,0-1.48,1.2,2.68,2.68,0,0,0,1,2,8.75,8.75,0,0,0,2.43,1.11,22.69,22.69,0,0,0-.71,2.95c-.1.58-.19,1.17-.27,1.76,0-.28,0-.52,0-.56-.13-1-.93-2.74-2-2.94a1.28,1.28,0,0,0-1.48,1.21,2.69,2.69,0,0,0,1,2,8.49,8.49,0,0,0,2.36,1.09c0,.22-.06.45-.08.68-.14,1.08-.26,2.17-.42,3.23,0,.38-.12.74-.18,1.11,0-.24,0-.45,0-.48-.12-1-.93-2.74-2-2.94a1.28,1.28,0,0,0-1.48,1.21,2.68,2.68,0,0,0,1,2,8.15,8.15,0,0,0,2.29,1.06c-.08.38-.16.75-.25,1.11s-.12.48-.21.72-.15.48-.23.72c-.16.44-.32.91-.49,1.34s-.24.59-.35.88c.06-.38.16-1.11.16-1.17a5.07,5.07,0,0,0-.67-2.42,1.42,1.42,0,0,0,0-.29,1.28,1.28,0,0,0-1.57-1.09c-1.05.28-1.71,2.12-1.76,3.09,0,.06,0,.68.06,1.07,0-.23-.1-.45-.16-.68-.11-.47-.23-.93-.36-1.42-.07-.24-.14-.48-.22-.72s-.17-.48-.25-.73c-.21-.57-.44-1.13-.7-1.69a8.5,8.5,0,0,0,2.42-.91,2.68,2.68,0,0,0,1.18-1.93,1.28,1.28,0,0,0-1.39-1.31c-1.08.12-2,1.83-2.21,2.78,0,.06-.07.76-.1,1.14l-.47-1c-.49-1-1-1.94-1.52-2.9l-.46-.9a8.9,8.9,0,0,0,2.5-.92,2.65,2.65,0,0,0,1.18-1.93,1.27,1.27,0,0,0-1.38-1.31c-1.08.11-2,1.83-2.21,2.78,0,.07-.11,1.07-.12,1.33-.34-.65-.67-1.31-1-2a21.34,21.34,0,0,1-1.06-2.73,9.08,9.08,0,0,0,2.52-.93,2.71,2.71,0,0,0,1.18-1.93,1.28,1.28,0,0,0-1.39-1.31c-1.08.12-2,1.83-2.21,2.78,0,.08-.11,1.16-.11,1.35l-.06-.16a16.3,16.3,0,0,1-.55-2.89c-.06-.54-.09-1-.1-1.56a8.55,8.55,0,0,0,2.54-.64,2.63,2.63,0,0,0,1.38-1.79,1.27,1.27,0,0,0-1.23-1.45c-1.08,0-2.2,1.6-2.5,2.52,0,.05-.13.58-.2,1,0-.22,0-.46,0-.68,0-.82.05-1.57.1-2.23,0-.38.07-.72.11-1a8.53,8.53,0,0,0,2-1.74,2.7,2.7,0,0,0,.4-2.22,1.29,1.29,0,0,0-1.77-.72c-1,.5-1.21,2.43-1.06,3.39,0,.08.38,1.35.4,1.34h0c0,.3-.09.63-.13,1-.06.66-.13,1.42-.15,2.24a24.25,24.25,0,0,0,.06,2.66,16.64,16.64,0,0,0,.5,2.93v0c-.17-.27-.67-1-.72-1.06-.63-.73-2.29-1.77-3.29-1.35a1.29,1.29,0,0,0-.57,1.83A2.68,2.68,0,0,0,135.69,441.1Z" style="fill:#263238"/><path d="M154.29,436s.35-1.27.36-1.35c.13-1-.17-2.89-1.15-3.36a1.29,1.29,0,0,0-1.75.77,2.67,2.67,0,0,0,.47,2.21A9.27,9.27,0,0,0,154.29,436Z" style="fill:#263238"/></g><g id="freepik--Character--inject-42"><path d="M228.61,154.62s-.72,8.67-.72,18.3S230.06,184,230.06,184l-33-7.46s2.41-19.74,0-26.48-3.37-10.11-3.37-10.11Z" style="fill:#fff"/><path d="M230.05,184.49H230L197,177a.5.5,0,0,1-.39-.55c0-.19,2.37-19.69,0-26.24s-3.37-10.11-3.38-10.14a.5.5,0,0,1,.15-.51.48.48,0,0,1,.52-.09l34.91,14.68a.5.5,0,0,1,.3.5c0,.09-.72,8.76-.72,18.26,0,9,1.94,10.65,2,10.66a.52.52,0,0,1,.15.62A.51.51,0,0,1,230.05,184.49Zm-32.42-8.35,31.28,7.07c-.69-1.39-1.52-4.31-1.52-10.29,0-8.44.56-16.23.69-18L194.5,140.81c.45,1.46,1.42,4.5,3.05,9.07C199.8,156.17,198,173.08,197.63,176.14Z" style="fill:#263238"/><polygon points="210.18 149.01 227.97 166.17 229.56 150.6 210.18 149.01" style="fill:#263238"/><path d="M228,166.67a.52.52,0,0,1-.35-.14l-17.79-17.16a.5.5,0,0,1-.1-.57.48.48,0,0,1,.49-.29l19.38,1.59a.48.48,0,0,1,.34.18.5.5,0,0,1,.12.37l-1.59,15.57a.51.51,0,0,1-.33.42A.47.47,0,0,1,228,166.67Zm-16.43-17,16,15.47,1.43-14Z" style="fill:#263238"/><path d="M243.3,107.67s7.61-1.17,7.52-10.59-8-14-15.08-17-20.46-8.49-33.67-9.34a39,39,0,0,0-33.2,14.8c-7.36,9.68-8.58,30.35-9.6,47.06s-.33,26.43,1.94,28.27,20.17,5.3,32.78,5.23,15.66-1.72,15.66-1.72-5.09-10.21-6.28-15.08-1.78-6.55-1.78-6.55L198.87,118l26.3-24.74,15.15,6.17,1,9.43Z" style="fill:#263238"/><path d="M193.62,166.64c-12.77,0-30.38-3.44-32.73-5.34s-3.16-11.64-2.12-28.69l0-.31c1-16.61,2.28-37.29,9.68-47a39.42,39.42,0,0,1,33.63-15c13.12.84,26.4,6.32,33.54,9.26l.29.12c6.56,2.7,15.29,7.45,15.39,17.42.09,9.12-6.88,10.87-7.83,11.06l-1.91,1.16a.48.48,0,0,1-.48,0,.53.53,0,0,1-.28-.4l-1-9.13-14.57-5.94L199.39,118.2l2.69,24.48c.12.34.71,2.13,1.78,6.54,1.16,4.76,6.19,14.88,6.24,15a.5.5,0,0,1-.21.66c-.13.07-3.3,1.71-15.89,1.78Zm6-95.44a38.29,38.29,0,0,0-30.31,14.68c-7.22,9.5-8.47,30-9.48,46.48l0,.31c-1.34,21.91.52,26.85,1.75,27.85,2,1.66,19.55,5.18,32.47,5.12,9.75,0,13.74-1.07,15-1.48-1-2.12-5-10.39-6.08-14.7-1.16-4.78-1.76-6.48-1.77-6.5a.36.36,0,0,1,0-.11l-2.73-24.79a.49.49,0,0,1,.16-.41L224.82,92.9a.54.54,0,0,1,.54-.1L240.51,99a.51.51,0,0,1,.31.41l.92,8.65,1.3-.8a.6.6,0,0,1,.19-.06c.29-.05,7.17-1.24,7.09-10.09-.09-9.27-7.94-13.69-14.77-16.51l-.29-.12C228.17,77.54,215,72.11,202,71.28,201.22,71.23,200.4,71.2,199.58,71.2Z" style="fill:#263238"/><path d="M217.48,91.62s-1.75,3.07-9.65,15.36-9.51,13.32-9.51,13.32,1.9,18.28,2.78,23.84,19.6,14.34,29.84,15.65,11.7-4.24,12.44-6,5.7-21.8,5.55-25.6-7.31-13.76-7.9-18.14-.87-10-.87-10S224.8,92.35,217.48,91.62Z" style="fill:#fff"/><path d="M233.89,160.5a24,24,0,0,1-3-.21c-9.9-1.27-29.32-10-30.28-16.07-.87-5.51-2.76-23.69-2.78-23.87a.52.52,0,0,1,.23-.48s1.8-1.4,9.36-13.16c7.79-12.12,9.62-15.31,9.64-15.34a.49.49,0,0,1,.48-.25c7.32.74,22.22,8.22,22.85,8.54a.5.5,0,0,1,.28.42c0,.06.29,5.59.87,9.91.28,2.07,2.15,5.56,4,8.94,2,3.7,3.87,7.2,3.94,9.25.15,3.8-4.81,23.93-5.59,25.81l-.14.35C242.94,156.27,241.29,160.5,233.89,160.5Zm-35-40c.24,2.24,1.94,18.44,2.75,23.56S220.53,158,231,159.3c9.22,1.18,11-3.37,11.76-5.32l.15-.38c.76-1.8,5.66-21.81,5.53-25.39-.08-1.81-2-5.37-3.83-8.81s-3.77-7-4.07-9.28c-.51-3.79-.8-8.49-.87-9.7-2-1-15.19-7.43-21.92-8.26-.6,1-2.94,4.89-9.5,15.09C201.85,117.2,199.55,119.83,198.84,120.5Z" style="fill:#263238"/><path d="M213.09,123.52a1,1,0,0,1-.51-.15,1,1,0,0,1-.35-1.37,8.86,8.86,0,0,1,4.71-3.7,6.8,6.8,0,0,1,5.05.45,1,1,0,1,1-1,1.71,4.87,4.87,0,0,0-3.51-.23A6.9,6.9,0,0,0,214,123,1,1,0,0,1,213.09,123.52Z" style="fill:#263238"/><path d="M219.77,108.82a10.08,10.08,0,0,0-7.54,1.37,12.17,12.17,0,0,0-4.45,5.82s4.62-3.6,7.19-4.62A27.82,27.82,0,0,0,219.77,108.82Z" style="fill:#263238"/><path d="M207.78,116.51a.47.47,0,0,1-.28-.09.5.5,0,0,1-.2-.55,12.59,12.59,0,0,1,4.65-6.09,10.52,10.52,0,0,1,7.94-1.45.52.52,0,0,1,.37.4.51.51,0,0,1-.21.5,28.25,28.25,0,0,1-4.89,2.62c-2.47,1-7,4.52-7.07,4.55A.51.51,0,0,1,207.78,116.51Zm9.84-7.41a8.85,8.85,0,0,0-5.1,1.5,11.83,11.83,0,0,0-3.47,3.84,33,33,0,0,1,5.74-3.52,25.81,25.81,0,0,0,3.55-1.79Q218,109.1,217.62,109.1Z" style="fill:#263238"/><path d="M238.6,130.38a.5.5,0,0,1-.49-.43.51.51,0,0,1,.42-.57c.94-.13,4.73-3.86,4.88-5-.23-.42-3-1.48-4.81-2.19-2.77-1.06-5.37-2.07-6.21-3.08-1.6-2-2.95-9-3-9.3a.51.51,0,0,1,.4-.59.5.5,0,0,1,.58.4c.37,2,1.61,7.39,2.81,8.85.66.82,3.38,1.86,5.79,2.79,3.77,1.45,5.58,2.2,5.44,3.24-.18,1.5-4.25,5.7-5.73,5.91Z" style="fill:#263238"/><path d="M230.55,139.88a18,18,0,0,1-8.63-2.37.5.5,0,0,1,.48-.88c9,4.92,15.15.27,15.21.22a.5.5,0,0,1,.7.08.5.5,0,0,1-.09.7A13.26,13.26,0,0,1,230.55,139.88Z" style="fill:#263238"/><path d="M234,117.52a1,1,0,0,1-.83-1.56c1.06-1.56,4-4,7.46-2.21a1,1,0,0,1-.93,1.78c-2.78-1.46-4.79,1.43-4.88,1.56A1,1,0,0,1,234,117.52Z" style="fill:#263238"/><path d="M230.9,107.62s.34-2.57,3.93-2.4a4,4,0,0,1,3.94,3.43A16.21,16.21,0,0,0,230.9,107.62Z" style="fill:#263238"/><path d="M238.77,109.15a.65.65,0,0,1-.19,0,15.68,15.68,0,0,0-7.59-1,.51.51,0,0,1-.44-.13.52.52,0,0,1-.15-.43s.44-3,4.46-2.83a4.48,4.48,0,0,1,4.41,3.88.51.51,0,0,1-.2.45A.54.54,0,0,1,238.77,109.15Zm-6-2.19a17.76,17.76,0,0,1,5.24.89,3.42,3.42,0,0,0-3.23-2.13c-1.94-.1-2.79.69-3.15,1.29A10.87,10.87,0,0,1,232.8,107Z" style="fill:#263238"/><path d="M198,363.74c4.95,12.26,21.06,35.53,31.91,53.62l-11.65,41.38H284c.4-3.65,1-13.9-2.3-29.87-4.18-20.31-7.47-40.33-7.47-40.33s4.49-40.64,4.49-51.4c0,0-32.87,12.25-59.76,7.77s-25.1-3.88-25.1-3.88S191.15,346.7,198,363.74Z" style="fill:#263238"/><path d="M284,459.24h-65.7a.48.48,0,0,1-.4-.2.45.45,0,0,1-.08-.43l11.59-41.18c-3.44-5.72-7.46-12.07-11.36-18.2-8.4-13.24-17.09-26.92-20.47-35.31-6.32-15.64-4.65-21.84-4.25-22.93a.3.3,0,0,1,0-.1c0-.17.07-.3.65-.31v0l.08,0c1.6,0,6.9.83,25,3.84,26.45,4.41,59.17-7.62,59.5-7.75a.53.53,0,0,1,.46.06.5.5,0,0,1,.22.41c0,10.46-4.27,49.49-4.48,51.38.21,1.3,3.44,20.76,7.45,40.25,3.3,16,2.71,26.34,2.31,30A.5.5,0,0,1,284,459.24Zm-65-1h64.59c.39-4,.81-14-2.34-29.27-4.13-20.09-7.44-40.15-7.47-40.35a.33.33,0,0,1,0-.14c0-.4,4.29-39,4.47-50.63-4.86,1.71-34.75,11.65-59.34,7.55-18.88-3.14-23.53-3.77-24.66-3.88-.39,1.32-1.56,7.52,4.29,22h0c3.35,8.3,12,21.95,20.39,35.14,3.94,6.21,8,12.63,11.49,18.41a.55.55,0,0,1,.06.4Z" style="fill:#263238"/><path d="M312.2,255.88l-.2,0a1,1,0,0,1-.78-1.18l6.43-31.41a1,1,0,0,1,2,.4l-6.43,31.41A1,1,0,0,1,312.2,255.88Z" style="fill:#263238"/><path d="M317.92,260.36h-.07a1,1,0,0,1-.93-1.07l3.46-46.83a1,1,0,0,1,2,.15l-3.45,46.82A1,1,0,0,1,317.92,260.36Z" style="fill:#263238"/><path d="M295.14,223s6.66-9.88,8.38-11.81,11.6-5.8,14.61-8.16,6.22-11.82,8.37-11,.86,3,.22,6-4.94,8.59-5.37,9.23,9.88,9,9.66,10.74-1.71,3-3.86,4.3-21.27,8.59-21.27,8.59l-6.66,7.73-6.66-13.74Z" style="fill:#fff"/><path d="M299.22,239.13h-.06a.52.52,0,0,1-.39-.28l-6.66-13.75a.5.5,0,0,1,.15-.61l2.51-1.89c.65-1,6.71-9.92,8.37-11.79,1-1.09,4.12-2.64,7.45-4.27a51.81,51.81,0,0,0,7.23-4c1.25-1,2.59-3.36,3.89-5.66,1.89-3.36,3.39-6,5-5.36,2.08.83,1.55,2.72,1,4.73-.16.57-.33,1.19-.47,1.85-.58,2.7-3.85,7.21-5.09,8.91l-.22.31a45.58,45.58,0,0,0,3.43,3.46c4.47,4.24,6.31,6.19,6.18,7.26-.26,2.09-2.22,3.53-4.11,4.66-2.09,1.26-19.46,7.91-21.22,8.58L299.6,239A.49.49,0,0,1,299.22,239.13Zm-6-14.09,6.15,12.69,6.16-7.15a.55.55,0,0,1,.2-.15c.19-.07,19.1-7.3,21.19-8.55,2.38-1.42,3.46-2.6,3.63-3.93,0-.82-3.82-4.45-5.87-6.4-3.56-3.39-4.11-4-3.72-4.55l.38-.54c1.09-1.49,4.38-6,4.92-8.53.15-.68.32-1.32.49-1.91.63-2.25.75-3.07-.4-3.53-.8-.32-2.57,2.83-3.74,4.92-1.34,2.38-2.73,4.85-4.15,6a52.14,52.14,0,0,1-7.4,4.07c-3.1,1.52-6.3,3.09-7.14,4-1.67,1.89-8.27,11.66-8.33,11.76a.34.34,0,0,1-.12.12Zm1.95-2.09h0Z" style="fill:#263238"/><path d="M328.44,201.47s-9-1.93-9.67-.21-2.15,6.87-1.5,7.73,2.79.43,2.79.43l2.36-5.8s7.31,1.29,7.73,1.08S330.15,201.69,328.44,201.47Z" style="fill:#fff"/><path d="M318.93,210a2.52,2.52,0,0,1-2.06-.74c-1-1.33,1.41-8.14,1.43-8.21.72-1.91,7.37-.71,10.22-.1a3,3,0,0,1,2.24,2.65c.09.55.11,1.27-.38,1.51-.16.08-.57.28-7.65-1l-2.21,5.43a.48.48,0,0,1-.36.3A7,7,0,0,1,318.93,210Zm2.19-9c-1.08,0-1.78.13-1.88.39-.86,2.29-1.95,6.63-1.57,7.27.27.36,1.29.38,2,.27l2.26-5.54a.51.51,0,0,1,.55-.3c3,.53,6.36,1.05,7.3,1.09a3,3,0,0,0-.43-1.5,1.39,1.39,0,0,0-1-.75h0A38.4,38.4,0,0,0,321.12,201Z" style="fill:#263238"/><path d="M330.15,204.7s-8.62-2.66-9.08-2-2.58,8.21-2.28,8.82,2.13,1.67,2.59,1.06,2.58-5.32,2.58-5.32,7.76,2,8.21.61S330.15,204.7,330.15,204.7Z" style="fill:#fff"/><path d="M320.93,213.21h-.14a3.79,3.79,0,0,1-2.45-1.52c-.49-1,2-8.95,2.33-9.34s.67-.89,9.63,1.87a.37.37,0,0,1,.14.07c.29.2,2.76,2,2.21,3.69-.48,1.44-4.75.72-8.41-.18-.54,1.18-2.05,4.48-2.46,5A1,1,0,0,1,320.93,213.21Zm.48-10.16c-.5,1.07-2.27,7.46-2.15,8.27a2.88,2.88,0,0,0,1.75.89c.27-.39,1.68-3.4,2.49-5.21a.49.49,0,0,1,.58-.27c3.64.92,7.2,1.34,7.64.9.23-.71-1.07-1.95-1.79-2.48C326.33,204.05,322.3,203,321.41,203.05Z" style="fill:#263238"/><path d="M332.17,207.82s-6.69-2.43-8.21-.61a10.27,10.27,0,0,0-2.58,5.32c-.46,2.28.76,2.74,1.67,3s2.58-3.19,3.34-3.65,6.7,1.07,6.7-.6A5.51,5.51,0,0,0,332.17,207.82Z" style="fill:#fff"/><path d="M323.17,216.1a1,1,0,0,1-.28,0c-.83-.28-2.56-.85-2-3.61a10.81,10.81,0,0,1,2.7-5.55c1.69-2,8,.2,8.76.46a.47.47,0,0,1,.27.23,6,6,0,0,1,1,3.74,1.06,1.06,0,0,1-.35.8c-.72.66-2.35.55-4.57.34a9.06,9.06,0,0,0-2-.09,7.66,7.66,0,0,0-1,1.34C324.74,215,324,216.1,323.17,216.1Zm2.92-9.08a2.32,2.32,0,0,0-1.75.51,9.77,9.77,0,0,0-2.47,5.1c-.38,1.9.49,2.19,1.34,2.47a8.65,8.65,0,0,0,1.57-1.95,6,6,0,0,1,1.36-1.65c.39-.24,1.13-.18,2.62,0,1.25.12,3.35.33,3.8-.08a4.83,4.83,0,0,0-.73-3.15A20,20,0,0,0,326.09,207Z" style="fill:#263238"/><path d="M327,215.42a5.06,5.06,0,0,1,2,.15c.91.31-.46,2.13-1.07,2.59s-4,0-4.56-1.22,1.52-6.84,2-7.45,5.63.91,5.63.91,2.13-.15,2.13.92c0,2.11-1.53,7.9-2.13,8.51a13.27,13.27,0,0,1-2.59,1.52" style="fill:#fff"/><path d="M328.37,221.85a.48.48,0,0,1-.45-.29.49.49,0,0,1,.24-.66,11.76,11.76,0,0,0,2.44-1.42c.48-.54,2-6.09,2-8.16a.15.15,0,0,0-.06-.14,2.7,2.7,0,0,0-1.53-.28.32.32,0,0,1-.17,0,20.06,20.06,0,0,0-5.14-1c-.55.89-2.33,6-1.88,6.86a2.42,2.42,0,0,0,1.4.83,4.66,4.66,0,0,0,2.42.2,3.48,3.48,0,0,0,1.16-1.76,5.18,5.18,0,0,0-1.71-.07.49.49,0,0,1-.56-.43.5.5,0,0,1,.42-.56,5.35,5.35,0,0,1,2.21.17.92.92,0,0,1,.63.73c.15.92-1,2.33-1.55,2.73s-2.09.25-2.87.07a3.71,3.71,0,0,1-2.44-1.46c-.78-1.56,1.62-7.44,2-8,.18-.24.66-.88,6.08.71a3.34,3.34,0,0,1,2.2.55,1.18,1.18,0,0,1,.37.87c0,2-1.46,8.06-2.27,8.87a13.24,13.24,0,0,1-2.73,1.62A.52.52,0,0,1,328.37,221.85Z" style="fill:#263238"/><path d="M303,224.93a.5.5,0,0,1-.47-.35.75.75,0,0,1,0-.32h0l0-.07c.28-1.25,1.75-4.77,2.74-5.51,1.25-.93,12.05-2.9,14.2-3.28a.5.5,0,1,1,.18,1c-4.9.88-13,2.49-13.78,3.1s-2.11,4.08-2.4,5a.43.43,0,0,1,0,.05.55.55,0,0,1-.49.38Z" style="fill:#263238"/><polygon points="295.54 220.21 306.42 236.21 298.74 244.53 287.86 226.93 295.54 220.21" style="fill:#b0b0b0"/><path d="M298.74,245h-.05a.52.52,0,0,1-.38-.23l-10.88-17.6a.49.49,0,0,1,.1-.64l7.68-6.72a.47.47,0,0,1,.39-.12.53.53,0,0,1,.35.21l10.88,16a.5.5,0,0,1,0,.62l-7.68,8.32A.52.52,0,0,1,298.74,245Zm-10.23-18,10.31,16.68,7-7.54L295.44,221Z" style="fill:#263238"/><path d="M298.74,244.53s2.56,2.56.64,5.12-27.84,25.6-27.84,25.6l-1.92-39S284,226,285,225.65s2.88,1.28,2.88,1.28Z" style="fill:#b0b0b0"/><path d="M271.54,275.75a.48.48,0,0,1-.2,0,.5.5,0,0,1-.3-.44l-1.92-39a.49.49,0,0,1,.21-.43c2.41-1.72,14.51-10.3,15.49-10.63,1.17-.39,3,1.08,3.36,1.37a.53.53,0,0,1,.1.12l10.85,17.56c1,1,2.35,3.46.65,5.73-1.93,2.57-26.85,24.73-27.91,25.67A.46.46,0,0,1,271.54,275.75Zm-1.41-39.29L272,274.18c4.33-3.86,25.31-22.59,27-24.83s-.5-4.38-.59-4.47l-.08-.09-10.83-17.53c-.82-.67-1.94-1.28-2.34-1.14C284.38,226.41,275.63,232.55,270.13,236.46Z" style="fill:#263238"/><path d="M193.24,328.78s-3.59,12.55-2.09,14.94,24.8,9.56,46,9.26,35.56-6.87,39.44-9,5.38-3.88,6-6.87-.9-10.16-.9-10.16-22.71,7.77-44.82,9S193.24,328.78,193.24,328.78Z" style="fill:#e0e0e0"/><path d="M235.92,353.49c-20.34,0-43.52-6.82-45.2-9.51-1.56-2.51,1.66-14,2-15.34a.48.48,0,0,1,.26-.31.51.51,0,0,1,.4,0c.21.08,21.68,8.31,43.42,7.14s44.45-8.86,44.68-8.94a.49.49,0,0,1,.41,0,.48.48,0,0,1,.24.33c.07.3,1.51,7.31.9,10.36s-2.27,5.08-6.23,7.22c-2.69,1.45-17.27,8.7-39.67,9Zm-42.35-24.06c-1.34,4.82-3,12.47-2,14,1.38,2.21,24.72,9.32,45.59,9,22.16-.31,36.55-7.47,39.21-8.91,3.7-2,5.14-3.64,5.72-6.53.48-2.38-.46-7.68-.79-9.4-3.59,1.17-24.36,7.72-44.41,8.81S197,330.68,193.57,329.43Z" style="fill:#263238"/><path d="M236.07,186.52a151.53,151.53,0,0,0-28.28-12.86c-14.72-4.67-23.37,12.16-26.64,28.05S191.9,293.8,191.9,293.8s-.93,34.59-.47,37.86,20.1,11.68,36.7,11.92,27.34-1.64,34.12-3.27,17.29-4.91,19.4-7.25,2.57-4.44,2.57-7.71S275.57,251,275.57,251s-6.31-29.69-14.72-41.84S236.07,186.52,236.07,186.52Z" style="fill:#e0e0e0"/><path d="M231,344.1l-2.85,0c-16-.23-36.62-8.43-37.18-12.35-.46-3.24.4-35.87.46-37.9-.7-3.78-14-76.49-10.74-92.22,1.3-6.31,5.36-21.59,15-27.21a14.67,14.67,0,0,1,12.33-1.21,153.21,153.21,0,0,1,28.39,12.9h0c.17.1,16.54,10.71,24.92,22.81s14.74,41.71,14.8,42c.36,3,8.66,71.16,8.66,74.43s-.43,5.53-2.7,8-13,5.78-19.65,7.39A133.43,133.43,0,0,1,231,344.1Zm-28-170.73a13.24,13.24,0,0,0-6.81,1.89c-9.25,5.42-13.21,20.37-14.48,26.55-3.22,15.62,10.61,91.13,10.75,91.9a.31.31,0,0,1,0,.1c0,.35-.93,34.58-.47,37.78.39,2.75,19.57,11.25,36.2,11.49,13,.19,24.16-.88,34-3.26,6.77-1.63,17.19-4.92,19.15-7.09s2.44-4.36,2.44-7.38c0-3.21-8.56-73.55-8.64-74.26-.06-.26-6.38-29.68-14.64-41.61s-24.23-22.27-24.63-22.54a152.69,152.69,0,0,0-28.17-12.8A15.56,15.56,0,0,0,202.93,173.37Z" style="fill:#263238"/><g style="opacity:0.18"><path d="M189.91,282.49l15.16-10.17,20.44,15a2.46,2.46,0,0,0,1.48.49,2.55,2.55,0,0,0,1.53-.52l20.07-15.53,21.32,13.75a2.5,2.5,0,0,0,3-.21l6.16-5.35c-.24-2-.48-4.05-.71-6L271,280.33l-21.22-13.69a2.5,2.5,0,0,0-2.89.12l-20,15.46-20.34-15a2.51,2.51,0,0,0-2.88-.06L189,277.08Q189.47,280,189.91,282.49Z"/><path d="M227,288.35a3,3,0,0,1-1.77-.58l-20.17-14.84-14.87,10a.49.49,0,0,1-.47.05.51.51,0,0,1-.3-.38c-.28-1.66-.59-3.47-.91-5.4a.49.49,0,0,1,.21-.5l14.75-9.89a3,3,0,0,1,3.45.07l20,14.74,19.68-15.22a3,3,0,0,1,3.46-.15L271,279.71l7-6.09a.49.49,0,0,1,.82.32l.72,6a.49.49,0,0,1-.17.44l-6.16,5.35a3,3,0,0,1-3.59.25l-21-13.56-19.79,15.31A3,3,0,0,1,227,288.35Zm-21.92-16.53a.45.45,0,0,1,.29.1l20.45,15a2.06,2.06,0,0,0,2.41,0l20.07-15.53a.48.48,0,0,1,.57,0l21.32,13.75a2,2,0,0,0,2.4-.17l6-5.17L278,275l-6.59,5.72a.48.48,0,0,1-.6,0l-21.22-13.69a2,2,0,0,0-2.31.1l-20,15.45a.5.5,0,0,1-.6,0l-20.34-15a2,2,0,0,0-2.3-.05l-14.48,9.71c.25,1.52.5,3,.73,4.32l14.52-9.73A.47.47,0,0,1,205.07,271.82Z"/><path d="M282.72,311.09,273,319.52l-21.22-13.69a2.5,2.5,0,0,0-2.89.12l-20,15.46-20.34-15a2.5,2.5,0,0,0-2.87-.06L191.41,316c0,2.12-.06,4.18-.08,6.08L207,311.51l20.44,15A2.46,2.46,0,0,0,229,327a2.55,2.55,0,0,0,1.53-.52L250.55,311l21.32,13.75a2.5,2.5,0,0,0,3-.21l8.54-7.41C283.2,315.32,283,313.29,282.72,311.09Z"/><path d="M229,327.54a3,3,0,0,1-1.78-.58L207,312.12l-15.4,10.33a.49.49,0,0,1-.52,0,.51.51,0,0,1-.26-.45c0-1.9,0-4,.08-6.07a.5.5,0,0,1,.22-.41L205.42,306a3,3,0,0,1,3.45.08l20,14.74,19.68-15.22a3,3,0,0,1,3.46-.15L273,318.9l9.44-8.19a.5.5,0,0,1,.51-.09.51.51,0,0,1,.31.41c.25,2.21.48,4.24.68,6a.49.49,0,0,1-.17.44l-8.54,7.41a3,3,0,0,1-3.59.25l-21-13.56-19.79,15.31A3,3,0,0,1,229,327.54ZM207,311a.45.45,0,0,1,.29.1l20.45,15a2,2,0,0,0,2.41,0l20.07-15.53a.48.48,0,0,1,.57,0l21.32,13.75a2,2,0,0,0,2.4-.17l8.34-7.24c-.17-1.47-.35-3.08-.55-4.82l-9,7.81a.48.48,0,0,1-.6,0l-21.22-13.69a2,2,0,0,0-2.31.1l-20,15.45a.5.5,0,0,1-.6,0l-20.34-15a2,2,0,0,0-2.3,0l-14.07,9.44c0,1.68,0,3.31-.07,4.86l14.91-10A.47.47,0,0,1,207,311Z"/><path d="M204.58,290.45l20.44,15a2.51,2.51,0,0,0,1.48.48,2.48,2.48,0,0,0,1.53-.52l20.07-15.53,21.32,13.76a2.5,2.5,0,0,0,3-.22L281,296c-.23-2-.47-4-.71-6l-9.71,8.42-21.22-13.7a2.51,2.51,0,0,0-2.89.13l-20,15.45-20.34-15a2.5,2.5,0,0,0-2.88-.06L191.76,293l.14.78s-.06,2.07-.13,5.24Z"/><path d="M226.5,306.47a3,3,0,0,1-1.77-.58l-20.17-14.83-12.51,8.39a.51.51,0,0,1-.52,0,.49.49,0,0,1-.26-.46c.07-2.87.12-4.85.13-5.19l-.13-.72a.5.5,0,0,1,.21-.5L203,284.9a3,3,0,0,1,3.45.08l20,14.74,19.68-15.23a3,3,0,0,1,3.46-.15l20.91,13.49,9.42-8.17a.5.5,0,0,1,.83.32l.71,6a.52.52,0,0,1-.17.44l-8.56,7.42a3,3,0,0,1-3.59.26l-21-13.56-19.79,15.31A3,3,0,0,1,226.5,306.47ZM204.58,290a.5.5,0,0,1,.29.09l20.45,15a2.06,2.06,0,0,0,2.41,0l20.07-15.53a.5.5,0,0,1,.57,0l21.32,13.76a2,2,0,0,0,2.4-.17l8.35-7.25-.56-4.81-9,7.81a.51.51,0,0,1-.6,0l-21.22-13.7a2,2,0,0,0-2.31.1l-20,15.46a.5.5,0,0,1-.6,0l-20.34-15a2,2,0,0,0-2.3,0l-11.22,7.52.08.46a.31.31,0,0,1,0,.1s0,1.66-.11,4.27l12-8.05A.46.46,0,0,1,204.58,290Z"/></g><path d="M200,260.82a.54.54,0,0,1-.21-.05.51.51,0,0,1-.24-.67c6.5-13.4,11.47-23.76,13.38-27.73-6.91,4.65-16.88,7.85-17,7.88a.5.5,0,0,1-.63-.32.51.51,0,0,1,.33-.63c.11,0,11.58-3.72,18.28-8.87a.5.5,0,0,1,.62,0,.49.49,0,0,1,.13.6c0,.12-5.89,12.31-14.22,29.49A.49.49,0,0,1,200,260.82Z" style="fill:#263238"/><path d="M183,203.11c1.4-18,11.45-28,26.64-27.81S264.12,197,264.12,197s25.71,17.76,28.28,31.55-.94,18.7-6.31,19.63-27.58,2.57-55.86-6.54-35.76-20.34-35.76-20.34" style="fill:#e0e0e0"/><path d="M274.32,249.45a145.31,145.31,0,0,1-44.24-7.3c-28.13-9.06-35.72-20.07-36-20.53a.49.49,0,0,1,.13-.69.51.51,0,0,1,.7.14c.07.11,7.76,11.19,35.49,20.13,32.27,10.4,55.39,6.57,55.62,6.53a7.07,7.07,0,0,0,4.84-2.95c2.13-3.07,2.49-8.48,1.07-16.1-2.51-13.43-27.82-31.06-28.08-31.23S224.55,176,209.66,175.8c-15.26-.25-24.77,9.74-26.14,27.35a.5.5,0,0,1-1-.08c1.4-17.94,11.53-28.53,27.15-28.27,15.14.23,53.08,20.92,54.69,21.8,1.1.76,25.95,18.06,28.53,31.9,1.47,7.89,1.06,13.56-1.23,16.85a8.08,8.08,0,0,1-5.49,3.36A77.33,77.33,0,0,1,274.32,249.45Z" style="fill:#263238"/><path d="M173.31,218.61a1.18,1.18,0,0,1-.31-.05,1,1,0,0,1-.64-1.26l12.76-39.67a1,1,0,1,1,1.9.61l-12.76,39.67A1,1,0,0,1,173.31,218.61Z" style="fill:#263238"/><path d="M224.94,174.36s-6.67-2-11.12-6.67-9.5-6.47-13.94-5.86a78.4,78.4,0,0,1-9.1.6s3-1,2.63-2.42-2.43-1.82-4.85-2.63-5.66-1.82-6.06,0-3,6.87-2.83,9.3,3.63,11.11,5.05,12.53,8.89,1.82,12.33,2.22,9.3-1.61,12.73-.2,8.29,3.23,8.29,3.23Z" style="fill:#fff"/><path d="M218.07,185l-.18,0s-4.89-1.84-8.3-3.24c-1.93-.79-4.74-.43-7.45-.07a22.62,22.62,0,0,1-5.15.31c-.67-.08-1.49-.16-2.39-.24-4.91-.47-9.06-1-10.23-2.13-1.55-1.55-5-10.42-5.2-12.84-.14-1.71,1-4.5,1.86-6.74a23.68,23.68,0,0,0,1-2.71,1.67,1.67,0,0,1,.8-1.11c1.26-.71,3.51,0,5.91.75l1.08.34c2,.65,3.68,1.16,4.09,2.62a1.89,1.89,0,0,1-.95,2c1.76-.06,4.36-.21,6.87-.55,4.92-.67,10,1.47,14.38,6s10.83,6.52,10.9,6.54a.49.49,0,0,1,.32.31.51.51,0,0,1-.06.45l-6.87,10.11A.48.48,0,0,1,218.07,185Zm-11.46-4.74a8.79,8.79,0,0,1,3.36.55c2.85,1.17,6.71,2.64,7.91,3.09l6.28-9.24a28.87,28.87,0,0,1-10.7-6.59c-4.12-4.31-8.92-6.34-13.51-5.71a77.16,77.16,0,0,1-9.17.61.5.5,0,0,1-.16-1c.81-.27,2.51-1.1,2.31-1.81-.27-.94-1.67-1.38-3.43-1.94l-1.1-.36c-1.44-.48-4.12-1.37-5.09-.82a.64.64,0,0,0-.33.46,22.1,22.1,0,0,1-1,2.86c-.86,2.14-1.92,4.81-1.8,6.29.2,2.38,3.64,11,4.91,12.21,1,1,6.4,1.53,9.62,1.84l2.42.25a22.46,22.46,0,0,0,4.9-.31A35.21,35.21,0,0,1,206.61,180.22Z" style="fill:#263238"/><path d="M190.78,162.93a.47.47,0,0,1-.27-.08l-3.43-2.22a.49.49,0,0,1-.15-.69.5.5,0,0,1,.69-.15l3.43,2.22a.49.49,0,0,1,.15.69A.48.48,0,0,1,190.78,162.93Z" style="fill:#263238"/><path d="M178.64,217.59l-.25,0a1,1,0,0,1-.72-1.21l14-54.42a1,1,0,0,1,1.94.5l-14,54.41A1,1,0,0,1,178.64,217.59Z" style="fill:#263238"/><polygon points="226.72 168.29 213.4 184.18 223.92 193.06 238.41 175.77 226.72 168.29" style="fill:#e0e0e0"/><path d="M223.92,193.56a.52.52,0,0,1-.32-.11l-10.52-8.89a.49.49,0,0,1-.06-.7L226.34,168a.49.49,0,0,1,.65-.1l11.69,7.48a.47.47,0,0,1,.22.34.46.46,0,0,1-.11.4L224.3,193.38a.45.45,0,0,1-.34.18Zm-9.81-9.44,9.75,8.24,13.8-16.48L226.83,169Z" style="fill:#263238"/><path d="M261.55,232.33c-.7-.47-33.66-27.11-36.46-30.15s-1.17-9.12-1.17-9.12l14.49-17.29a16.06,16.06,0,0,1,10.28,1.63c5.38,2.81,36.7,26.18,43.71,36.46s10.83,22.34,7.24,28.28c-6.19,10.28-29.23,6.55-29.23,6.55" style="fill:#e0e0e0"/><path d="M279.73,249.87a65.29,65.29,0,0,1-9.4-.68.5.5,0,0,1,.16-1c.23,0,22.78,3.55,28.73-6.31,3.23-5.36.25-16.76-7.23-27.74-7-10.29-38.6-33.73-43.53-36.3a15.86,15.86,0,0,0-9.78-1.63l-14.3,17.08c-.19.79-1.32,5.95,1.08,8.54,2.91,3.15,36.13,29.91,36.37,30.07a.52.52,0,0,1,.13.7.5.5,0,0,1-.69.13c-.22-.15-33.51-26.93-36.55-30.22s-1.35-9.33-1.28-9.59a.5.5,0,0,1,.1-.19L238,175.45a.56.56,0,0,1,.26-.17A16.44,16.44,0,0,1,248.93,177c5.1,2.66,36.61,26,43.88,36.62,6.3,9.24,11.26,22.2,7.26,28.82C296.35,248.57,287,249.87,279.73,249.87Z" style="fill:#263238"/><polygon points="149.7 364.22 174.55 340.84 180.1 221.56 167.53 213.96 149.7 364.22" style="fill:#297633"/><path d="M149.7,364.72a.48.48,0,0,1-.23-.05.51.51,0,0,1-.27-.5L167,213.9a.52.52,0,0,1,.27-.39.51.51,0,0,1,.48,0l12.57,7.6a.48.48,0,0,1,.24.45l-5.55,119.27a.5.5,0,0,1-.16.34L150,364.59A.48.48,0,0,1,149.7,364.72Zm18.24-149.93L150.36,362.92l23.7-22.31,5.53-118.77Z" style="fill:#263238"/><path d="M167.53,214s-5.84-2.33-6.72-2.33-15.5-7-15.5-7L98.83,339.67s21,14.91,30.7,18.71a131.66,131.66,0,0,0,20.17,5.84Z" style="fill:#297633"/><path d="M149.7,364.72h-.1a133.13,133.13,0,0,1-20.25-5.88c-9.6-3.78-29.94-18.15-30.81-18.76a.52.52,0,0,1-.18-.58l46.48-135a.5.5,0,0,1,.69-.29c5.47,2.63,14.47,6.84,15.31,7h0c.9,0,5.89,2,6.88,2.37a.49.49,0,0,1,.31.52L150.2,364.28a.5.5,0,0,1-.5.44ZM99.43,339.48c2.63,1.84,21.43,14.95,30.28,18.43a132.49,132.49,0,0,0,19.56,5.72L167,214.29a49.24,49.24,0,0,0-6.18-2.17c-.86,0-10.54-4.58-15.21-6.82Z" style="fill:#263238"/><path d="M141.51,353.91a.48.48,0,0,1-.36-.16l-3.32-3.46a.5.5,0,0,1,0-.71.49.49,0,0,1,.7,0l3.33,3.46a.5.5,0,0,1,0,.71A.52.52,0,0,1,141.51,353.91Z" style="fill:#263238"/><path d="M135.44,347.58a.48.48,0,0,1-.36-.16l-7.51-7.82L103,341a.5.5,0,1,1-.06-1l24.85-1.47a.49.49,0,0,1,.39.16l7.66,8a.5.5,0,0,1,0,.71A.52.52,0,0,1,135.44,347.58Z" style="fill:#263238"/><path d="M139.49,293.58h-.13A.51.51,0,0,1,139,293l1.15-4.57a.51.51,0,0,1,.61-.37.5.5,0,0,1,.36.61L140,293.21A.5.5,0,0,1,139.49,293.58Z" style="fill:#263238"/><path d="M128.94,335.49h-.12a.5.5,0,0,1-.36-.61l9.38-37.3a.51.51,0,0,1,.61-.37.5.5,0,0,1,.36.61l-9.38,37.3A.5.5,0,0,1,128.94,335.49Z" style="fill:#263238"/><path d="M167.53,214l11.11,2.63,10.82-1.46s1.75,74.26,5.55,99.69,4.09,28.94,4.09,28.94-15.2.88-27.77.88-18.12-1.76-18.12-1.76Z" style="fill:#949494"/><path d="M171.33,345.14c-12.5,0-18-1.71-18.27-1.78a.49.49,0,0,1-.35-.53L167,213.91a.49.49,0,0,1,.2-.35.5.5,0,0,1,.41-.08l11,2.61,10.72-1.45a.5.5,0,0,1,.39.11.55.55,0,0,1,.18.37c0,.74,1.79,74.51,5.55,99.63s4.08,28.83,4.09,29a.5.5,0,0,1-.12.37.51.51,0,0,1-.35.17C199,344.27,183.77,345.14,171.33,345.14Zm-17.58-2.62c1.47.37,7.09,1.62,17.58,1.62,11.11,0,24.44-.7,27.22-.85-.19-1.65-1-8-4-28.4-3.59-24-5.38-92.28-5.55-99.19l-10.26,1.39a.37.37,0,0,1-.18,0L168,214.58Z" style="fill:#263238"/><path d="M162.34,337.86a.49.49,0,0,1-.42-.24.5.5,0,0,1,.16-.69l13.45-8.14a.5.5,0,1,1,.52.86l-13.45,8.14A.59.59,0,0,1,162.34,337.86Z" style="fill:#263238"/><path d="M153.21,343.38a.49.49,0,0,1-.43-.24.49.49,0,0,1,.17-.68l6.22-3.77a.5.5,0,0,1,.69.17.51.51,0,0,1-.17.69l-6.22,3.76A.48.48,0,0,1,153.21,343.38Z" style="fill:#263238"/><path d="M177.77,281.67a.5.5,0,0,1-.5-.5l-.12-50.48a.5.5,0,0,1,.5-.5h0a.5.5,0,0,1,.5.5l.12,50.48a.5.5,0,0,1-.5.5Z" style="fill:#263238"/><path d="M193.84,341.53a.51.51,0,0,1-.31-.11l-16-12.56a.51.51,0,0,1-.19-.4l-.1-43.73a.49.49,0,0,1,.49-.5h0a.51.51,0,0,1,.5.5l.1,43.49,15.77,12.41a.52.52,0,0,1,.08.71A.52.52,0,0,1,193.84,341.53Z" style="fill:#263238"/><path d="M158.16,211.43a1,1,0,0,1-.58-.19,1,1,0,0,1-.23-1.39l34.48-48.25a1,1,0,1,1,1.63,1.17L159,211A1,1,0,0,1,158.16,211.43Z" style="fill:#263238"/><path d="M331.67,261a1,1,0,0,1-1-.93l-3.12-43.16a1,1,0,0,1,.92-1.07,1,1,0,0,1,1.07.93L332.67,260a1,1,0,0,1-.93,1.07Z" style="fill:#263238"/><path d="M352,260.09a1,1,0,0,1-.88-.54L328.1,216a1,1,0,1,1,1.76-.93l23.06,43.51a1,1,0,0,1-.88,1.47Z" style="fill:#263238"/><polygon points="343.82 259.94 355.77 261.29 363.48 256.56 414.74 370.26 365.72 390.91 343.82 259.94" style="fill:#fff"/><path d="M365.72,391.41a.53.53,0,0,1-.24-.06.52.52,0,0,1-.25-.36L343.32,260a.56.56,0,0,1,.13-.43.51.51,0,0,1,.42-.15l11.79,1.33,7.56-4.64a.54.54,0,0,1,.41-.05.48.48,0,0,1,.31.28l51.25,113.69a.48.48,0,0,1,0,.39.5.5,0,0,1-.27.28l-49,20.65A.48.48,0,0,1,365.72,391.41Zm-21.3-130.9L366.11,390.2l48-20.2L363.26,257.28,356,261.71a.44.44,0,0,1-.32.07Z" style="fill:#263238"/><polygon points="365.72 390.91 336.61 371.5 335.37 260.29 343.82 259.94 365.72 390.91" style="fill:#263238"/><path d="M365.72,391.41a.53.53,0,0,1-.27-.08l-29.11-19.41a.53.53,0,0,1-.23-.41L334.87,260.3a.51.51,0,0,1,.48-.51l8.45-.35a.47.47,0,0,1,.51.41l21.91,131a.51.51,0,0,1-.23.5A.5.5,0,0,1,365.72,391.41Zm-28.61-20.18L365,389.85,343.4,260.46l-7.52.31Z" style="fill:#263238"/><path d="M366,296.87a.49.49,0,0,1-.47-.35l-1.22-3.78a.5.5,0,0,1,.32-.63.49.49,0,0,1,.63.32l1.22,3.78a.5.5,0,0,1-.33.63A.4.4,0,0,1,366,296.87Z" style="fill:#263238"/><path d="M363.47,289.07a.51.51,0,0,1-.48-.35l-8.19-25.54a.5.5,0,1,1,.95-.3l8.2,25.54a.51.51,0,0,1-.33.63Z" style="fill:#263238"/><path d="M392.4,367h-.08l-4.53-.74a.5.5,0,0,1-.42-.57.51.51,0,0,1,.58-.41l4.53.73a.5.5,0,0,1-.08,1Z" style="fill:#263238"/><path d="M412.5,370.26h-.08l-15.14-2.44a.5.5,0,0,1-.41-.57.49.49,0,0,1,.57-.42l15.14,2.45a.5.5,0,0,1-.08,1Z" style="fill:#263238"/><path d="M365.72,391.41a.46.46,0,0,1-.29-.1.51.51,0,0,1-.11-.7l9.45-12.93a.5.5,0,0,1,.7-.11.51.51,0,0,1,.11.7l-9.45,12.93A.49.49,0,0,1,365.72,391.41Z" style="fill:#263238"/><path d="M315.21,255.94,330,258.05l13.85-1.81,20.47,127.07s-12.34,3.61-31.61,4.81-25.3,1.21-25.3,1.21Z" style="fill:#297633"/><path d="M307.38,389.83a.52.52,0,0,1-.36-.16.5.5,0,0,1-.13-.37l7.82-133.39a.48.48,0,0,1,.19-.35.49.49,0,0,1,.38-.11L330,257.54l13.78-1.79a.5.5,0,0,1,.56.41l20.48,127.07a.5.5,0,0,1-.36.56c-.12,0-12.62,3.64-31.72,4.83S307.45,389.83,307.38,389.83Zm8.3-133.32-7.76,132.31c1.84,0,8.76-.2,24.73-1.19A165.56,165.56,0,0,0,363.73,383L343.4,256.8,330,258.55h-.13Z" style="fill:#263238"/><polygon points="315.21 255.94 298.95 253.84 277.88 364.34 307.38 389.33 315.21 255.94" style="fill:#297633"/><path d="M307.38,389.83a.49.49,0,0,1-.32-.12l-29.51-25a.51.51,0,0,1-.16-.48l21.07-110.5a.5.5,0,0,1,.56-.4l16.26,2.11a.49.49,0,0,1,.43.52l-7.83,133.39a.49.49,0,0,1-.3.43A.45.45,0,0,1,307.38,389.83Zm-29-25.69,28.52,24.16,7.75-131.92-15.33-2Z" style="fill:#263238"/><path d="M330,276.92a.5.5,0,0,1-.5-.5V258.05a.5.5,0,0,1,.5-.5.5.5,0,0,1,.5.5v18.37A.51.51,0,0,1,330,276.92Z" style="fill:#263238"/><line x1="349.99" y1="378" x2="360.98" y2="380.9" style="fill:#297633"/><path d="M361,381.4l-.13,0-11-2.9a.5.5,0,0,1-.36-.61.48.48,0,0,1,.61-.35l11,2.9a.5.5,0,0,1-.13,1Z" style="fill:#263238"/><polyline points="307.38 389.33 333.58 373.67 345.46 376.81" style="fill:#297633"/><path d="M307.38,389.83a.5.5,0,0,1-.25-.93l26.19-15.66a.53.53,0,0,1,.39-.05l11.88,3.13a.5.5,0,0,1,.35.61.5.5,0,0,1-.61.36l-11.67-3.08-26,15.55A.48.48,0,0,1,307.38,389.83Z" style="fill:#263238"/><path d="M332.17,358.82a.49.49,0,0,1-.5-.47L331,346.9a.5.5,0,0,1,.47-.52.47.47,0,0,1,.53.46l.7,11.45a.52.52,0,0,1-.47.53Z" style="fill:#263238"/><path d="M332.68,367.25a.5.5,0,0,1-.5-.47l-.28-4.59a.5.5,0,0,1,.47-.53.48.48,0,0,1,.53.47l.28,4.59a.52.52,0,0,1-.47.53Z" style="fill:#263238"/></g><g id="freepik--Table--inject-42"><path d="M449.4,459.24h-13a.5.5,0,0,1-.5-.5.5.5,0,0,1,.5-.5h13a.5.5,0,0,1,.5.5A.5.5,0,0,1,449.4,459.24Z" style="fill:#263238"/><path d="M431.22,459.24H46a.5.5,0,0,1-.5-.5.5.5,0,0,1,.5-.5H431.22a.5.5,0,0,1,.5.5A.5.5,0,0,1,431.22,459.24Z" style="fill:#263238"/></g></svg>